<?xml version="1.0" encoding="UTF-8" standalone="no"?>
<svg xmlns="http://www.w3.org/2000/svg" width="1024" height="1024" viewBox="0 0 1024 1024" role="img" aria-label="AI-Assisted Form Filling logo">
  <defs>
    <linearGradient id="gDoc" x1="0" x2="1" y1="0" y2="1">
      <stop offset="0" stop-color="#e8f0ff"/>
      <stop offset="1" stop-color="#d7e8ff"/>
    </linearGradient>
    <linearGradient id="gAccent" x1="0" x2="1">
      <stop offset="0" stop-color="#2b6df6"/>
      <stop offset="1" stop-color="#0057d9"/>
    </linearGradient>
    <filter id="softShadow" x="-20%" y="-20%" width="140%" height="140%">
      <feDropShadow dx="0" dy="10" stdDeviation="18" flood-color="#0b2a66" flood-opacity="0.12"/>
    </filter>
  </defs>

  <!-- Background rounded square -->
  <rect x="64" y="64" width="896" height="896" rx="160" fill="white"/>

  <!-- Paper/document shape -->
  <g filter="url(#softShadow)">
    <path d="M224 176h420l196 196v456a56 56 0 0 1-56 56H224a56 56 0 0 1-56-56V232a56 56 0 0 1 56-56z"
          fill="url(#gDoc)" stroke="#c7dcff" stroke-width="6"/>
    <!-- folded corner -->
    <path d="M644 176v160a24 24 0 0 0 24 24h160" fill="none" stroke="#b6cffb" stroke-width="6" stroke-linecap="round"/>
    <path d="M644 176h164l-28 28" fill="none" stroke="#9ebff7" stroke-width="6" stroke-linejoin="round"/>
  </g>

  <!-- Form lines on document -->
  <g transform="translate(268,260)" stroke="#2b6df6" stroke-linecap="round" stroke-width="18">
    <line x1="0" y1="40" x2="360" y2="40"/>
    <line x1="0" y1="108" x2="260" y2="108"/>
    <line x1="0" y1="176" x2="360" y2="176"/>
  </g>

  <!-- Robot head (AI) overlapping document -->
  <g transform="translate(520,432)">
    <!-- body shadow circle -->
    <circle cx="0" cy="0" r="110" fill="#ffffff" opacity="0.95"/>
    <!-- outer ring -->
    <circle cx="0" cy="0" r="92" fill="url(#gAccent)"/>
    <!-- inner face -->
    <circle cx="0" cy="0" r="64" fill="#ffffff"/>
    <!-- eyes -->
    <circle cx="-22" cy="-8" r="10" fill="#2b6df6"/>
    <circle cx="22" cy="-8" r="10" fill="#2b6df6"/>
    <!-- mouth (smile) -->
    <path d="M -28 18 Q 0 36 28 18" fill="none" stroke="#2b6df6" stroke-width="6" stroke-linecap="round" stroke-linejoin="round"/>
    <!-- antenna -->
    <rect x="-6" y="-86" width="12" height="42" rx="6" fill="#2b6df6"/>
    <circle cx="0" cy="-96" r="14" fill="#ffd166"/>
    <!-- subtle body -->
    <rect x="-36" y="68" width="72" height="68" rx="16" fill="#eaf3ff" stroke="#cfe2ff" stroke-width="4"/>
    <!-- small gear-like ear (left) -->
    <g transform="translate(-76,-10)">
      <circle cx="0" cy="0" r="18" fill="#eaf3ff" stroke="#cfe2ff" stroke-width="4"/>
      <path d="M -6 -14 L -6 14 M 6 -14 L 6 14 M -14 -6 L 14 -6 M -14 6 L 14 6" stroke="#cfe2ff" stroke-width="2" stroke-linecap="round"/>
    </g>
  </g>

  <!-- Pencil crossing diagonally (represents filling) -->
  <g transform="translate(300,600) rotate(-30)">
    <!-- pencil body -->
    <rect x="-220" y="-26" width="420" height="52" rx="14" fill="#ffd166" stroke="#f0b429" stroke-width="4"/>
    <!-- pencil tip -->
    <path d="M200 -26 L248 0 L200 26 z" fill="#1f2937" stroke="#111827" stroke-width="3"/>
    <path d="M164 -18 L200 0 L164 18 z" fill="#f4f4f5" opacity="0.2"/>
    <!-- metal band -->
    <rect x="-252" y="-26" width="32" height="52" rx="8" fill="#e2e8f0" stroke="#cbd5e1" stroke-width="2"/>
    <!-- eraser -->
    <rect x="-292" y="-26" width="40" height="52" rx="8" fill="#f3f4f6" stroke="#e6e7ea" stroke-width="2"/>
    <!-- subtle shadow under pencil -->
    <ellipse cx="-20" cy="46" rx="260" ry="34" fill="#0b2a66" opacity="0.06"/>
  </g>

  <!-- Small checkbox hints (to indicate form fields being filled) -->
  <g transform="translate(320,360)" fill="#ffffff" stroke="#2b6df6" stroke-width="10" stroke-linecap="round">
    <rect x="0" y="-8" width="30" height="30" rx="6" fill="#ffffff"/>
    <rect x="0" y="68" width="30" height="30" rx="6" fill="#ffffff"/>
    <!-- check marks -->
    <path d="M6 6 L12 20 L26 4" stroke="#2b6df6" stroke-width="6" fill="none" stroke-linecap="round" stroke-linejoin="round"/>
    <path d="M6 74 L12 88 L26 72" stroke="#2b6df6" stroke-width="6" fill="none" stroke-linecap="round" stroke-linejoin="round"/>
  </g>

  <!-- finishing touches: small accent circles -->
  <g>
    <circle cx="160" cy="820" r="10" fill="#ffd166" opacity="0.9"/>
    <circle cx="880" cy="200" r="8" fill="#2b6df6" opacity="0.9"/>
    <circle cx="760" cy="780" r="6" fill="#0057d9" opacity="0.85"/>
  </g>
</svg>
